REM DIRINDEX 1\2,1\3,1\4,1\5
REM DIRNAME cjc005,folder01,folder02,folder03,folder04
TITLE ""
FILE "P1Q_t_0550-0559.mp3" MP3
  TRACK 01 AUDIO
    TITLE "3:cjc005_2553"
    INDEX 01 00:00:00
  TRACK 02 AUDIO
    TITLE "0:"
    INDEX 01 00:01:24
  TRACK 03 AUDIO
    TITLE "4:cjc005_2554"
    INDEX 01 00:01:52
  TRACK 04 AUDIO
    TITLE "0:"
    INDEX 01 00:03:39
  TRACK 05 AUDIO
    TITLE "5:cjc005_2555"
    INDEX 01 00:03:70
  TRACK 06 AUDIO
    TITLE "0:"
    INDEX 01 00:08:07
  TRACK 07 AUDIO
    TITLE "3:cjc005_2556"
    INDEX 01 00:08:70
  TRACK 08 AUDIO
    TITLE "0:"
    INDEX 01 00:10:18
  TRACK 09 AUDIO
    TITLE "4:cjc005_2557"
    INDEX 01 00:10:37
  TRACK 10 AUDIO
    TITLE "0:"
    INDEX 01 00:12:03
  TRACK 11 AUDIO
    TITLE "5:cjc005_2558"
    INDEX 01 00:12:28
  TRACK 12 AUDIO
    TITLE "0:"
    INDEX 01 00:15:46
  TRACK 13 AUDIO
    TITLE "3:cjc005_2559"
    INDEX 01 00:16:22
  TRACK 14 AUDIO
    TITLE "0:"
    INDEX 01 00:17:51
  TRACK 15 AUDIO
    TITLE "4:cjc005_2560"
    INDEX 01 00:17:74
  TRACK 16 AUDIO
    TITLE "0:"
    INDEX 01 00:19:03
  TRACK 17 AUDIO
    TITLE "5:cjc005_2561"
    INDEX 01 00:19:30
  TRACK 18 AUDIO
    TITLE "0:"
    INDEX 01 00:23:24
  TRACK 19 AUDIO
    TITLE "3:cjc005_2562"
    INDEX 01 00:24:02
  TRACK 20 AUDIO
    TITLE "0:"
    INDEX 01 00:25:15
  TRACK 21 AUDIO
    TITLE "4:cjc005_2563"
    INDEX 01 00:25:43
  TRACK 22 AUDIO
    TITLE "0:"
    INDEX 01 00:27:71
  TRACK 23 AUDIO
    TITLE "5:cjc005_2564"
    INDEX 01 00:28:19
  TRACK 24 AUDIO
    TITLE "0:"
    INDEX 01 00:32:01
  TRACK 25 AUDIO
    TITLE "3:cjc005_2565"
    INDEX 01 00:32:54
  TRACK 26 AUDIO
    TITLE "0:"
    INDEX 01 00:34:04
  TRACK 27 AUDIO
    TITLE "4:cjc005_2566"
    INDEX 01 00:34:30
  TRACK 28 AUDIO
    TITLE "0:"
    INDEX 01 00:36:31
  TRACK 29 AUDIO
    TITLE "5:cjc005_2567"
    INDEX 01 00:36:54
  TRACK 30 AUDIO
    TITLE "0:"
    INDEX 01 00:40:52
  TRACK 31 AUDIO
    TITLE "3:cjc005_2568"
    INDEX 01 00:41:26
  TRACK 32 AUDIO
    TITLE "0:"
    INDEX 01 00:42:37
  TRACK 33 AUDIO
    TITLE "4:cjc005_2569"
    INDEX 01 00:42:65
  TRACK 34 AUDIO
    TITLE "0:"
    INDEX 01 00:44:12
  TRACK 35 AUDIO
    TITLE "5:cjc005_2570"
    INDEX 01 00:44:40
  TRACK 36 AUDIO
    TITLE "0:"
    INDEX 01 00:48:73
  TRACK 37 AUDIO
    TITLE "3:cjc005_2571"
    INDEX 01 00:49:45
  TRACK 38 AUDIO
    TITLE "0:"
    INDEX 01 00:50:56
  TRACK 39 AUDIO
    TITLE "4:cjc005_2572"
    INDEX 01 00:51:07
  TRACK 40 AUDIO
    TITLE "0:"
    INDEX 01 00:52:30
  TRACK 41 AUDIO
    TITLE "5:cjc005_2573"
    INDEX 01 00:52:51
  TRACK 42 AUDIO
    TITLE "0:"
    INDEX 01 00:56:33
  TRACK 43 AUDIO
    TITLE "3:cjc005_2574"
    INDEX 01 00:57:05
  TRACK 44 AUDIO
    TITLE "0:"
    INDEX 01 00:58:11
  TRACK 45 AUDIO
    TITLE "4:cjc005_2575"
    INDEX 01 00:58:40
  TRACK 46 AUDIO
    TITLE "0:"
    INDEX 01 00:59:55
  TRACK 47 AUDIO
    TITLE "5:cjc005_2576"
    INDEX 01 01:00:06
  TRACK 48 AUDIO
    TITLE "0:"
    INDEX 01 01:02:73
  TRACK 49 AUDIO
    TITLE "3:cjc005_2577"
    INDEX 01 01:03:51
  TRACK 50 AUDIO
    TITLE "0:"
    INDEX 01 01:04:68
  TRACK 51 AUDIO
    TITLE "4:cjc005_2578"
    INDEX 01 01:05:21
  TRACK 52 AUDIO
    TITLE "0:"
    INDEX 01 01:06:45
  TRACK 53 AUDIO
    TITLE "5:cjc005_2579"
    INDEX 01 01:06:69
  TRACK 54 AUDIO
    TITLE "0:"
    INDEX 01 01:09:18
  TRACK 55 AUDIO
    TITLE "3:cjc005_2580"
    INDEX 01 01:10:00
  TRACK 56 AUDIO
    TITLE "0:"
    INDEX 01 01:10:69
  TRACK 57 AUDIO
    TITLE "4:cjc005_2581"
    INDEX 01 01:11:23
  TRACK 58 AUDIO
    TITLE "0:"
    INDEX 01 01:12:56
  TRACK 59 AUDIO
    TITLE "5:cjc005_2582"
    INDEX 01 01:13:08
  TRACK 60 AUDIO
    TITLE "0:"
    INDEX 01 01:16:71
